<svg xmlns="http://www.w3.org/2000/svg" width="357" height="154" viewBox="0 0 357 154">
    <path fill="#000" fill-rule="evenodd" d="M0 102.703L72.757 4.007h8.646v98.696h21.51l-1.897 7.17H81.403v39.858H73.39v-39.858H0v-7.17zm73.39 0v-87.94l-64.744 87.94H73.39zm53.653-25.94c0-13.215 1.23-24.638 3.69-34.269 2.461-9.63 5.94-17.574 10.44-23.83 4.499-6.257 9.947-10.931 16.344-14.024C163.914 1.547 171.049 0 178.922 0c7.873 0 15.008 1.547 21.405 4.64 6.397 3.093 11.81 7.767 16.238 14.024 4.43 6.256 7.839 14.2 10.229 23.83 2.39 9.63 3.585 21.054 3.585 34.27 0 13.215-1.23 24.638-3.69 34.27-2.461 9.63-5.94 17.573-10.44 23.83-4.499 6.256-9.947 10.93-16.344 14.024-6.397 3.093-13.532 4.64-21.405 4.64-7.873 0-15.008-1.512-21.405-4.535-6.397-3.023-11.81-7.697-16.239-14.024-4.428-6.327-7.838-14.305-10.228-23.936-2.39-9.63-3.585-21.054-3.585-34.27zm8.857 0c0 22.495 3.515 39.648 10.545 51.458 7.03 11.81 17.785 17.714 32.266 17.714 14.48 0 25.236-5.87 32.266-17.609 7.03-11.74 10.544-28.927 10.544-51.562 0-22.636-3.514-39.823-10.544-51.563-7.03-11.74-17.785-17.609-32.266-17.609-14.481 0-25.237 5.905-32.266 17.715-7.03 11.81-10.545 28.962-10.545 51.457zm118.186 25.94l72.757-98.696h8.646v98.696H357l-1.898 7.17h-19.613v39.858h-8.013v-39.858h-73.39v-7.17zm73.39 0v-87.94l-64.743 87.94h64.743z"/>
</svg>
