<svg xmlns="http://www.w3.org/2000/svg" xmlns:xlink="http://www.w3.org/1999/xlink" width="69" height="28" viewBox="0 0 69 28">
    <defs>
        <path id="a" d="M.804.368h12.55v26.757H.803z"/>
        <path id="c" d="M.063.293h14.488v26.832H.063z"/>
        <path id="e" d="M.38.368h15.145v26.756H.38z"/>
    </defs>
    <g fill="none" fill-rule="evenodd">
        <path fill="#000" d="M4.404.875l-.647.988-.948-.678v.001l-.07.301-.196.865-.685-.165-.434-.105h-.001L1.58 3.27l-1.135.167.314.59.24.459-1 .585.882.767-.172.217-.013.016-.547.692.547.194.2.07.339.12-.36 1.136.729-.032.414-.018.014.298.044.895 1.05-.48.466 1.095.812-.846.812.846.466-1.094 1.05.48.042-.896.014-.298.413.018.732.032-.36-1.135.796-.282.29-.103-.56-.707-.173-.218.883-.767-.435-.254-.566-.331.557-1.05-1.138-.166.04-.29.119-.897h-.002l-.523.128-.593.142-.265-1.167-.95.678-.649-.988zM.01 23.952v3.816h1.442v-1.117h7.255v-1.582H1.452v-1.117zM.01 18.746v1.585h3.604v1.374H.01v1.585h8.696v-1.585H5.054v-1.374h3.653v-1.585zM7.265 14.295v1.934h-2.21v-1.673H3.612v1.673H1.452v-1.895H.012v3.478h8.695v-3.517z"/>
        <g transform="translate(12.075 .71)">
            <mask id="b" fill="#fff">
                <use xlink:href="#a"/>
            </mask>
            <path fill="#000" d="M8.89 19.327c0 2.217-1.464 3.478-3.513 3.478h-.11v-7.148h.11c2.05 0 3.513 1.262 3.513 3.478v.192zM5.267 4.687h.074c1.975 0 3.293.994 3.293 3.325v.077c0 2.332-1.318 3.517-3.293 3.517h-.074V4.687zm4.062 8.715c1.828-.917 3.695-2.6 3.695-6.039v-.19c0-4.97-4.025-6.805-8.342-6.805H.804v26.757h4.06c4.976 0 8.49-2.676 8.49-7.416v-.343c0-3.403-1.867-4.97-4.025-5.964z" mask="url(#b)"/>
        </g>
        <path fill="#000" d="M31.318 16.597h4.72v-4.434h-4.72v-6.65h5.343V1.078h-9.806v26.756h9.915v-4.434h-5.452z"/>
        <g transform="translate(37.95 .71)">
            <mask id="d" fill="#fff">
                <use xlink:href="#c"/>
            </mask>
            <path fill="#000" d="M5.843 17.607l1.39-8.83 1.354 8.83H5.843zM4.928.293L.063 27.125H4.38l.804-5.314h4.061l.842 5.314h4.464L9.684.293H4.928z" mask="url(#d)"/>
        </g>
        <g transform="translate(53.475 .71)">
            <mask id="f" fill="#fff">
                <use xlink:href="#e"/>
            </mask>
            <path fill="#000" d="M11.1.368l-3.147 9.785L4.807.368H.38v26.756H4.66V10.956l3.254 10.13h.074l3.256-10.13v16.168h4.28V.368z" mask="url(#f)"/>
        </g>
    </g>
</svg>
