<svg xmlns="http://www.w3.org/2000/svg" xmlns:xlink="http://www.w3.org/1999/xlink" width="43" height="43" viewBox="0 0 43 43">
    <defs>
        <path id="a" d="M0 0h43v43H0z"/>
    </defs>
    <g fill="none" fill-rule="evenodd">
        <mask id="b" fill="#fff">
            <use xlink:href="#a"/>
        </mask>
        <path fill="#000" d="M32.316 19.293l-1.088.282v10.609h-2.3V19.55c-.554-.095-.962-.166-1.404-.244v-1.342l1.17-.125c.689-2.078.288-3.455-1.17-3.854V12.54c2.473-.624 3.692.28 3.71 2.724.007.808 0 1.615 0 2.495.393.08.713.149 1.082.226v1.307zm-9.586 10.93h-2.705l-2.445-12.17c.193-.083.262-.135.333-.14 1.953-.17 2.021-.103 2.307 1.82.394 2.634.812 5.266 1.404 7.922.523-3.204 1.044-6.412 1.577-9.687h2.248c-.906 4.091-1.805 8.134-2.719 12.254zM15.453 13.99c-1.472.404-1.71 1.15-1.208 3.833.353.037.729.074 1.197.12v1.37c-.403.07-.812.141-1.33.229V30.21c-.84 0-1.49 0-2.291-.002V19.582l-1.144-.294v-1.265l1.095-.272v-2.254c.007-2.666.847-3.378 3.68-3.04v1.534zM21.656 0C9.629-.004.003 9.51 0 21.403-.002 33.414 9.525 42.999 21.463 43 33.337 43 42.993 33.458 43 21.714 43.007 9.658 33.518.004 21.656 0z" mask="url(#b)"/>
    </g>
</svg>
