<svg id="Layer_1" data-name="Layer 1" xmlns="http://www.w3.org/2000/svg" viewBox="0 0 201 46.44"><title>if logo black</title><path d="M17.22,16.26H.5v9.6H7.62V47.22h9.6Zm.84-9.72a5.79,5.79,0,0,0-11.58,0,5.79,5.79,0,1,0,11.58,0M44.59,47.22h9.6V31.74a15.48,15.48,0,0,0-31,0V47.22h9.6V31.62a5.88,5.88,0,1,1,11.76,0v15.6ZM79,25.82h9.85V16.26H79v-2.6c0-2.48.93-3.9,4.09-3.9h5.76v-9H82.61c-8.29,0-13.19,4.09-13.19,12.88v2.6H59.58v9.56h9.84v8.52c0,2.48-.93,3.9-4.08,3.9H59.58v9h6.25c8.3,0,13.19-4.09,13.19-12.88ZM113.54,37.5h-5.88a5.89,5.89,0,1,1,5.88-5.88Zm-5.88,9.72h15.48V31.74a15.48,15.48,0,1,0-15.48,15.48M138,25.86h7.12v-9.6H128.43v31H138ZM201.5,47.22V31.74a15.46,15.46,0,0,0-26.19-11.15,15.47,15.47,0,0,0-26.2,11.15V47.22h9.6V31.62a5.89,5.89,0,1,1,11.77,0v15.6h9.59V32a6.1,6.1,0,0,1,6-6.26,5.92,5.92,0,0,1,5.88,5.89v15.6Z" transform="translate(-0.5 -0.78)"/></svg>