<svg xmlns="http://www.w3.org/2000/svg" width="113" height="27" viewBox="0 0 113 27">
    <g fill="#FFF" fill-rule="evenodd">
        <path d="M71.69 8.675v17.35h5.38V14.052h3.99V8.675zM0 8.675v5.378h3.991v11.971h5.378V8.675zM6.612 0C4.808 0 3.35 1.422 3.35 3.227A3.259 3.259 0 0 0 6.612 6.49c1.805 0 3.228-1.458 3.228-3.262A3.2 3.2 0 0 0 6.612 0M103.961 8.675c-2.325 0-4.441.937-6.004 2.429-1.561-1.492-3.678-2.43-6.003-2.43-4.788 0-8.675 3.887-8.675 8.676v8.675h5.379V17.28c0-1.804 1.492-3.296 3.296-3.296 1.805 0 3.297 1.492 3.297 3.296v8.745h5.378v-8.537c0-1.874 1.423-3.504 3.332-3.504 1.804 0 3.296 1.492 3.296 3.296v8.745h5.379V17.35c0-4.79-3.887-8.675-8.675-8.675M21.412 8.675a8.678 8.678 0 0 0-8.675 8.675v8.675h5.378V17.28c0-1.804 1.492-3.296 3.297-3.296 1.804 0 3.296 1.492 3.296 3.296V26.025h5.38V17.35c0-4.79-3.888-8.675-8.676-8.675M59.512 20.577a3.318 3.318 0 0 1-3.297-3.297 3.318 3.318 0 0 1 3.297-3.297c1.804 0 3.296 1.492 3.296 3.297v3.298h-3.296zm0-11.902c-4.79 0-8.675 3.886-8.675 8.674a8.678 8.678 0 0 0 8.675 8.675h8.675V17.35c0-4.788-3.887-8.674-8.675-8.674zM38.219 7.217v1.458h-5.517v5.357h5.517v4.774c0 1.39-.521 2.187-2.291 2.187h-3.226v5.031h3.504c4.65 0 7.39-2.29 7.39-7.218v-4.774h5.519V8.675h-5.518V7.217c0-1.388.52-2.186 2.29-2.186h3.228V.001H45.61c-4.65 0-7.391 2.29-7.391 7.216"/>
    </g>
</svg>
