<svg xmlns="http://www.w3.org/2000/svg" width="116" height="26" viewBox="0 0 116 26">
    <path fill="#000" fill-rule="nonzero" d="M9.6 8.4H0v5.58h4.09V26.4H9.6v-18zm0-5.416A2.958 2.958 0 0 0 6.616 0C4.948 0 3.6 1.315 3.6 2.984A3.013 3.013 0 0 0 6.616 6C8.284 6 9.6 4.652 9.6 2.984zM25.62 26.4h5.58v-9c0-4.968-4.032-9-9-9s-9 4.032-9 9v9h5.58v-9.072c0-1.872 1.548-3.42 3.42-3.42 1.872 0 3.42 1.548 3.42 3.42V26.4zm20.333-12.161H51.6V8.8h-5.647V7.322c0-1.408.532-2.217 2.343-2.217H51.6V0h-3.588c-4.76 0-7.565 2.323-7.565 7.322V8.8H34.8v5.439h5.647v4.84c0 1.407-.533 2.217-2.344 2.217H34.8V26.4h3.587c4.76 0 7.566-2.323 7.566-7.322v-4.84zM66 21.6h-3.6c-1.97 0-3.6-1.63-3.6-3.6 0-1.97 1.63-3.6 3.6-3.6 1.97 0 3.6 1.63 3.6 3.6v3.6zm-4.2 4.8h9v-9c0-4.968-4.032-9-9-9s-9 4.032-9 9 4.032 9 9 9zm18.111-12.42H84V8.4h-9.6v18h5.511V13.98zM116.4 26.4v-9c0-4.968-3.972-9-8.865-9-2.376 0-4.54.972-6.135 2.52-1.595-1.548-3.759-2.52-6.135-2.52-4.893 0-8.865 4.032-8.865 9v9h5.496v-9.072c0-1.872 1.525-3.42 3.37-3.42 1.843 0 3.368 1.548 3.368 3.42V26.4h5.497v-8.856c0-1.944 1.454-3.636 3.404-3.636 1.844 0 3.369 1.548 3.369 3.42V26.4h5.496z"/>
</svg>
