<svg width="34px" height="45px" viewBox="0 0 34 45" version="1.1" xmlns="http://www.w3.org/2000/svg" xmlns:xlink="http://www.w3.org/1999/xlink">
    <g id="Page-1" stroke="none" stroke-width="1" fill="none" fill-rule="evenodd" fill-opacity=".75">
        <g id="map-marker-alt" fill="#000000" fill-rule="nonzero">
            <path d="M15.2528958,44.0920791 C2.38796875,25.5788902 0,23.6788712 0,16.8749959 C0,7.55516417 7.61113021,0 17,0 C26.3888698,0 34,7.55516417 34,16.8749959 C34,23.6788712 31.6120312,25.5788902 18.7471042,44.0920791 C17.9028594,45.3026843 16.0970521,45.3025964 15.2528958,44.0920791 Z M17,23.9062442 C20.9120365,23.9062442 24.0833333,20.7582664 24.0833333,16.8749959 C24.0833333,12.9917253 20.9120365,9.8437476 17,9.8437476 C13.0879635,9.8437476 9.91666667,12.9917253 9.91666667,16.8749959 C9.91666667,20.7582664 13.0879635,23.9062442 17,23.9062442 Z" id="Shape"></path>
        </g>
    </g>
</svg>