<svg xmlns="http://www.w3.org/2000/svg" xmlns:xlink="http://www.w3.org/1999/xlink" width="113" height="19" viewBox="0 0 113 19">
    <defs>
        <path id="a" d="M.58.829h6.374v10.548H.58z"/>
        <path id="c" d="M0 .638h15.934v17.457H0z"/>
        <path id="e" d="M0 18.095h113V.637H0z"/>
    </defs>
    <g fill="none" fill-rule="evenodd">
        <path fill="#000" d="M45.08 5.317h-7.768V7.79h2.59v7.711h2.59v-7.71h2.589z"/>
        <g transform="translate(0 .315)">
            <path fill="#000" d="M47.005 10.459c.067-.729.4-1.165.93-1.165.73 0 .93.436 1.063 1.165h-1.993zm.997-3.056c-1.859 0-3.187 1.382-3.187 4 0 2.402 1.128 4.001 3.253 4.001 1.129 0 1.992-.29 2.855-.873l-.93-1.671c-.663.362-1.194.508-1.792.508-.664 0-1.129-.364-1.196-1.236h4.117v-.51c0-2.837-1.195-4.219-3.12-4.219zM55.637 13.223c-.664 0-.996-.581-.996-1.82 0-1.236.332-1.89.93-1.89.53 0 .73.363 1.062 1.018l1.66-1.383c-.598-1.09-1.328-1.745-2.656-1.745-2.258 0-3.32 1.6-3.32 3.93 0 2.544 1.195 4 3.254 4 1.195 0 1.991-.51 2.788-1.818l-1.527-1.31c-.398.726-.73 1.018-1.195 1.018M63.803 7.476c-.796 0-1.26.29-1.727.655V4.638l-2.39 1.02v9.529h2.39v-4.365c0-.946.266-1.236.798-1.236.465 0 .797.218.797 1.236v4.365h2.39v-4.583c0-2.037-.73-3.128-2.258-3.128M71.903 12.859c-1.13 0-1.594-1.237-1.594-2.764 0-1.6.464-2.765 1.527-2.765.864 0 1.196.582 1.529 1.528l2.322-1.019c-.664-1.89-1.593-2.982-3.85-2.982-2.524 0-4.25 1.964-4.25 5.238 0 2.982 1.461 5.237 4.25 5.237 2.19 0 3.252-1.31 3.917-2.691l-2.191-1.237c-.531.946-.863 1.455-1.66 1.455M79.538 8.13V7.55h-2.39v7.638h2.39V11.04c0-.946.332-1.236.93-1.236.464 0 .796.29 1.128.654l.531-2.764A2.18 2.18 0 0 0 81 7.403c-.598 0-1.063.291-1.461.728M87.24 11.913c0 .946-.332 1.236-.796 1.236-.466 0-.798-.218-.798-1.236V7.548h-2.39v4.658c0 2.035.731 3.126 2.257 3.126.798 0 1.329-.291 1.727-.655v.51h2.39V7.548h-2.39v4.365zM95.539 7.403c-.797 0-1.262.291-1.726.655v-.51h-2.39v7.639h2.39v-4.365c0-.946.265-1.236.797-1.236.464 0 .796.218.796 1.236v4.365h2.39V10.53c0-2.036-.73-3.127-2.257-3.127M102.509 13.223c-.663 0-.995-.581-.995-1.82 0-1.236.332-1.89.93-1.89.53 0 .73.363 1.061 1.018l1.66-1.383c-.597-1.09-1.328-1.745-2.656-1.745-2.257 0-3.318 1.6-3.318 3.93 0 2.544 1.194 4 3.253 4 1.26 0 1.992-.51 2.787-1.818l-1.527-1.31c-.398.726-.73 1.018-1.195 1.018"/>
            <g transform="translate(106.046 3.81)">
                <mask id="b" fill="#fff">
                    <use xlink:href="#a"/>
                </mask>
                <path fill="#000" d="M4.697 3.667c-.797 0-1.262.29-1.727.654V.829L.58 1.848v9.53h2.39V7.011c0-.945.265-1.236.797-1.236.465 0 .797.218.797 1.236v4.365h2.39V6.794c0-2.037-.73-3.127-2.257-3.127" mask="url(#b)"/>
            </g>
            <mask id="d" fill="#fff">
                <use xlink:href="#c"/>
            </mask>
            <path fill="#000" d="M5.31 18.095h5.313V6.457h5.31V.638H0v5.82h5.31z" mask="url(#d)"/>
            <mask id="f" fill="#fff">
                <use xlink:href="#e"/>
            </mask>
            <path fill="#000" d="M0 .638h15.934H0zM15.934 6.457v11.638h15.934v-5.82H21.246V6.457z" mask="url(#f)"/>
            <path fill="#000" d="M21.246 6.458h10.622V.638H21.246v5.819z" mask="url(#f)"/>
        </g>
    </g>
</svg>
