<svg xmlns="http://www.w3.org/2000/svg" width="102" height="22" viewBox="0 0 102 22">
    <g fill="#000" fill-rule="evenodd">
        <path d="M0 21.593h20.413V0H0v21.593zM1.504 3.39c.91 4.39 1.727 8.804 2.605 13.2.16.529.061 1.222.554 1.576.89.147 1.804.11 2.701.047.49.016.606-.579.695-.961.613-3.131 1.28-6.252 1.89-9.383.048-.29.135-.572.267-.833.76 3.36 1.39 6.748 2.096 10.12.097.36.118.8.458 1.02.971.121 1.968.13 2.938-.01.348-.211.366-.652.455-1.015.897-4.584 1.735-9.188 2.683-13.762-.857.005-1.712.002-2.566.002-.683 3.99-1.23 8.006-1.981 11.983-.848-3.374-1.415-6.83-2.152-10.234-.169-.582-.092-1.43-.708-1.725a17.662 17.662 0 0 0-2.263 0c-.428.036-.524.561-.609.909-.682 3.375-1.396 6.744-2.063 10.12-.068.314-.169.614-.285.912-.684-3.98-1.332-7.97-1.922-11.964-.931-.002-1.862.003-2.793-.002zM40.635 21.593h20.413V0H40.635v21.593zm4.611-18.202c2.806 0 5.614-.002 8.42 0 .87 0 1.907.115 2.462.906.695.951.669 2.197.68 3.328-.003.97-.047 2.031-.651 2.826-.417.58-1.155.608-1.73.925.774.232 1.765.44 2.02 1.369.494 1.775.18 3.648.435 5.46-.898-.004-1.793-.004-2.691-.004-.097-1.599-.23-3.193-.301-4.795.012-.637-.654-1.052-1.214-.995-1.533-.012-3.067.002-4.6-.003v5.793h-2.83V3.391zm2.83 2.434v4.29c1.69-.024 3.387.053 5.076-.037.908-.056.922-1.185.957-1.891-.029-.777.11-1.809-.588-2.323-1.81-.098-3.63-.01-5.446-.04zM81.333 21.593H102V0H81.333v21.593zm4.611-18.202c2.47.011 4.943-.024 7.413.019 1.381.053 2.954.387 3.775 1.659 1.034 1.712.871 3.808 1.055 5.736-.18 1.925-.025 4.012-1.055 5.719-.884 1.358-2.59 1.641-4.055 1.67-2.379.018-4.754.002-7.133.007V3.391zm2.829 2.434v9.943c1.446-.002 2.894.003 4.343.003.696.014 1.538-.176 1.863-.892.485-1.109.366-2.357.407-3.54-.054-1.48.148-3.023-.33-4.445-.216-.727-.997-1.073-1.682-1.064-1.534-.016-3.067.002-4.601-.005zM25.59 3.247c3.29-.008 6.576-.008 9.863 0 .012.883.012 1.767.002 2.652-1.162.008-2.325.003-3.487.003.006 3.263.006 6.53 0 9.791 1.162 0 2.325-.005 3.49.004a131 131 0 0 1-.005 2.65c-3.286.008-6.572.008-9.858 0a102.04 102.04 0 0 1-.002-2.651c1.162-.008 2.325-.003 3.487-.003-.005-3.262-.005-6.529 0-9.79-1.162 0-2.325.004-3.487-.004-.012-.885-.012-1.767-.002-2.652M64.695 3.249c4.029-.013 8.057-.013 12.09 0 .004 1.638 0 3.276.002 4.914h-2.618c-.002-.756-.002-1.509.002-2.262-1.576.002-3.152.002-4.727 0-.006 1.132-.003 2.264-.003 3.397h3.815v2.52H69.44c.005 1.293-.014 2.588.013 3.881 1.618-.018 3.234-.004 4.853-.008-.002-.86-.002-1.721 0-2.583.889-.011 1.775-.011 2.663-.003 0 1.747.014 3.492-.007 5.238-4.09.014-8.178.014-12.268 0-.014-.881-.011-1.765-.002-2.646.648-.01 1.294-.01 1.941-.002.014-3.267.014-6.533 0-9.797a71.65 71.65 0 0 1-1.944-.007c-.006-.88-.006-1.762.005-2.642"/>
    </g>
</svg>
